<svg xmlns="http://www.w3.org/2000/svg" viewBox="0 0 128.5 128.5"><circle cx="64.25" cy="64.25" r="64.25" fill="#78CACE"/><circle cx="64" cy="94.337" r="4.674" fill="#EFB67F"/><path fill="#EFB67F" d="M21 42h43v54H21z"/><path fill="#D8D8D8" d="M23 92h41v1H23z"/><path fill="#EAEAEA" d="M23 90h41v2H23z"/><path d="M64 93.402S63.065 90 59.326 90H23V38h36.326C62.13 38 64 41.054 64 42.924v50.478z" fill="#F7F7F7"/><path fill="#EFB67F" d="M64 42h43v54H64z"/><path fill="#D8D8D8" d="M64 92h41v1H64z"/><path fill="#EAEAEA" d="M64 90h41v2H64z"/><path d="M64 93.402S64.935 90 68.674 90H105V38H68.674C65.87 38 64 41.054 64 42.924v50.478z" fill="#F7F7F7"/><path d="M64 95c-.552 0-1-.447-1-1V42c0-.553.448-1 1-1s1 .447 1 1v52c0 .553-.448 1-1 1z" fill="#EAEAEA"/><path d="M55 45H28c-1.105 0-2-.896-2-2s.895-2 2-2h27c1.104 0 2 .896 2 2s-.896 2-2 2zM37 52H27c-.552 0-1-.447-1-1s.448-1 1-1h10c.552 0 1 .447 1 1s-.448 1-1 1zM44 52h-3c-.552 0-1-.447-1-1s.448-1 1-1h3c.552 0 1 .447 1 1s-.448 1-1 1zM44 69h-6c-.552 0-1-.447-1-1s.448-1 1-1h6c.552 0 1 .447 1 1s-.448 1-1 1zM44 61H27c-.552 0-1-.447-1-1s.448-1 1-1h17c.552 0 1 .447 1 1s-.448 1-1 1zM58 61H48c-.552 0-1-.447-1-1s.448-1 1-1h10c.552 0 1 .447 1 1s-.448 1-1 1zM58 52H48c-.552 0-1-.447-1-1s.448-1 1-1h10c.552 0 1 .447 1 1s-.448 1-1 1zM58 78H41c-.552 0-1-.447-1-1s.448-1 1-1h17c.552 0 1 .447 1 1s-.448 1-1 1zM37 78H27c-.552 0-1-.447-1-1s.448-1 1-1h10c.552 0 1 .447 1 1s-.448 1-1 1zM35 69h-8c-.552 0-1-.447-1-1s.448-1 1-1h8c.552 0 1 .447 1 1s-.448 1-1 1zM58 69H48c-.552 0-1-.447-1-1s.448-1 1-1h10c.552 0 1 .447 1 1s-.448 1-1 1zM44 86h-6c-.552 0-1-.447-1-1s.448-1 1-1h6c.552 0 1 .447 1 1s-.448 1-1 1zM35 86h-8c-.552 0-1-.447-1-1s.448-1 1-1h8c.552 0 1 .447 1 1s-.448 1-1 1zM58 86H48c-.552 0-1-.447-1-1s.448-1 1-1h10c.552 0 1 .447 1 1s-.448 1-1 1zM100 52H90c-.552 0-1-.447-1-1s.448-1 1-1h10c.552 0 1 .447 1 1s-.448 1-1 1zM86 52h-3c-.552 0-1-.447-1-1s.448-1 1-1h3c.552 0 1 .447 1 1s-.448 1-1 1zM89 69h-6c-.552 0-1-.447-1-1s.448-1 1-1h6c.552 0 1 .447 1 1s-.448 1-1 1zM100 61H83c-.552 0-1-.447-1-1s.448-1 1-1h17c.552 0 1 .447 1 1s-.448 1-1 1zM79 61H69c-.552 0-1-.447-1-1s.448-1 1-1h10c.552 0 1 .447 1 1s-.448 1-1 1zM79 52H69c-.552 0-1-.447-1-1s.448-1 1-1h10c.552 0 1 .447 1 1s-.448 1-1 1zM86 78H69c-.552 0-1-.447-1-1s.448-1 1-1h17c.552 0 1 .447 1 1s-.448 1-1 1zM100 78H90c-.552 0-1-.447-1-1s.448-1 1-1h10c.552 0 1 .447 1 1s-.448 1-1 1zM100 69h-8c-.552 0-1-.447-1-1s.448-1 1-1h8c.552 0 1 .447 1 1s-.448 1-1 1zM79 69H69c-.552 0-1-.447-1-1s.448-1 1-1h10c.552 0 1 .447 1 1s-.448 1-1 1zM89 45h-6c-.552 0-1-.447-1-1s.448-1 1-1h6c.552 0 1 .447 1 1s-.448 1-1 1zM100 45h-8c-.552 0-1-.447-1-1s.448-1 1-1h8c.552 0 1 .447 1 1s-.448 1-1 1zM79 45H69c-.552 0-1-.447-1-1s.448-1 1-1h10c.552 0 1 .447 1 1s-.448 1-1 1zM89 86h-6c-.552 0-1-.447-1-1s.448-1 1-1h6c.552 0 1 .447 1 1s-.448 1-1 1zM100 86h-8c-.552 0-1-.447-1-1s.448-1 1-1h8c.552 0 1 .447 1 1s-.448 1-1 1zM79 86H69c-.552 0-1-.447-1-1s.448-1 1-1h10c.552 0 1 .447 1 1s-.448 1-1 1z" fill="#D8D8D8"/><path fill="#EF8D6F" d="M72 102.75l-2.5-3.74-2.5 3.74V38h5"/></svg>