<svg xmlns="http://www.w3.org/2000/svg" viewBox="0 0 128 128"><circle cx="64" cy="64" r="64" fill="#FCCC66"/><path d="M89.813 96.565c0 1.345-1.09 2.435-2.435 2.435h-46.13c-1.344 0-2.434-1.09-2.434-2.435v-64.13c0-1.345 1.09-2.435 2.435-2.435h46.128c1.345 0 2.435 1.09 2.435 2.435v64.13z" fill="#6A6D58"/><path fill="#F9FAF5" d="M43.813 53h12v12h-12zM57.813 53h13v12h-13zM72.813 53h12v12h-12zM43.813 67h12v13h-12zM57.813 67h13v13h-13zM72.813 67h12v13h-12zM43.813 82h12v12h-12zM57.813 82h13v12h-13z"/><path fill="#FF8E6E" d="M72.907 81.337H84.7V93.13H72.907z"/><path d="M84.813 47.565c0 1.345-1.09 2.435-2.435 2.435h-37.13c-1.344 0-2.434-1.09-2.434-2.435v-9.13c0-1.344 1.09-2.434 2.435-2.434h37.128c1.345 0 2.435 1.09 2.435 2.436v9.13z" fill="#76A7F4"/></svg>