<svg xmlns="http://www.w3.org/2000/svg" viewBox="0 0 128.5 128.5"><circle cx="64.25" cy="64.25" r="64.25" fill="#EF8D6F"/><path d="M87.805 28.975h.618c7.083 0 12.878 5.795 12.878 12.88v48.344c0 7.082-5.795 12.878-12.877 12.878h-.618v-55.79c2.704 0 4.896-2.193 4.896-4.897 0-2.702-2.19-4.894-4.895-4.894v-8.52zm-47.11 0h47.11v8.52c-2.704 0-4.897 2.193-4.897 4.896 0 2.705 2.193 4.897 4.896 4.897v55.79H40.697v-55.79c2.703 0 4.896-2.192 4.896-4.896 0-2.702-2.192-4.894-4.896-4.894v-8.52zm-.616 0h.616v8.52c-2.704 0-4.896 2.193-4.896 4.896 0 2.705 2.192 4.897 4.896 4.897v55.79h-.617c-7.085 0-12.88-5.796-12.88-12.878V41.853c0-7.084 5.795-12.88 12.88-12.88z" fill="#F2F2F2"/><path d="M40.696 25.422c1.046 0 1.902.856 1.902 1.902V40.49c0 1.045-.856 1.9-1.902 1.9-1.048 0-1.903-.855-1.903-1.9V27.323c0-1.046.857-1.902 1.903-1.902zM87.805 25.422c1.047 0 1.902.856 1.902 1.902V40.49c0 1.045-.855 1.9-1.902 1.9-1.048 0-1.904-.855-1.904-1.9V27.323c.002-1.046.858-1.902 1.905-1.902z" fill="#AFAFAF"/><path fill="#FABB18" d="M27.2 50.675h74.1v3.107H27.2z"/><path fill="#EFCB6C" d="M53.236 59.304h9.584v8.453h-9.584z"/><path fill="#C9675B" d="M38.2 58.954h9.583v8.453H38.2z"/><path fill="#EFCB6C" d="M68.727 59.304h9.584v8.453h-9.583zM83.088 59.304h9.584v8.453h-9.584zM53.586 72.996h9.584v8.453h-9.584zM69.077 72.996h9.584v8.453h-9.583zM83.088 73.346h9.584V81.8h-9.584zM53.586 87.327h9.584v8.44h-9.584zM38.373 72.996h9.584v8.453h-9.584zM38.373 87.327h9.584v8.44h-9.584zM68.727 87.677h9.584v8.44h-9.583zM83.088 87.677h9.584v8.44h-9.584z"/></svg>