<svg xmlns="http://www.w3.org/2000/svg" viewBox="0 0 128 128"><circle cx="64" cy="64" r="64" fill="#2ECBD0"/><path d="M93.813 92.565c0 1.345-.885 2.435-2.208 2.435h-55.21c-1.322 0-2.58-1.09-2.58-2.435v-57.13c0-1.345 1.258-2.435 2.58-2.435h55.21c1.324 0 2.21 1.09 2.21 2.435l-.002 57.13z" fill="#F4EDDA"/><path d="M93.813 51.553c0 .414-.943 1.447-2.265 1.447H36.452c-1.322 0-2.638-1.033-2.638-1.447V34.075c0-.414 1.316-1.075 2.638-1.075h55.096c1.322 0 2.265.66 2.265 1.075v17.478z" fill="#F5795D"/><path d="M52.813 39.628c0 1.31-1.062 2.372-2.372 2.372h-2.255c-1.31 0-2.372-1.062-2.372-2.372V29.372c0-1.31 1.062-2.372 2.372-2.372h2.256c1.31 0 2.373 1.062 2.373 2.372v10.256zM81.813 39.628c0 1.31-1.062 2.372-2.372 2.372h-2.255c-1.31 0-2.372-1.062-2.372-2.372V29.372c0-1.31 1.062-2.372 2.372-2.372h2.256c1.31 0 2.373 1.062 2.373 2.372v10.256z" fill="#F4EDDA"/><path fill="#E2DCCC" d="M37.813 57h10v9h-10zM51.813 57h10v9h-10zM65.813 57h10v9h-10zM79.813 57h10v9h-10zM37.813 69h10v10h-10zM51.813 69h10v10h-10zM65.813 69h10v10h-10zM79.813 69h10v10h-10zM37.813 82h10v10h-10zM51.813 82h10v10h-10zM65.813 82h10v10h-10z"/><path fill="#F5795D" d="M79.813 82h10v10h-10z"/></svg>