<svg xmlns="http://www.w3.org/2000/svg" viewBox="0 0 128.5 128.5"><circle cx="64.25" cy="64.25" r="64.25" fill="#EFCB6C"/><path d="M85 99.54c0 1.358-1.102 2.46-2.46 2.46H45.46c-1.358 0-2.46-1.102-2.46-2.46v-.08c0-1.358 1.102-2.46 2.46-2.46h37.08c1.358 0 2.46 1.102 2.46 2.46v.08z" fill="#DD744B"/><path d="M95 95c0 2.21-1.79 4-4 4H37c-2.21 0-4-1.79-4-4s1.79-4 4-4h54c2.21 0 4 1.79 4 4z" fill="#E27664"/><path d="M64 99H37.1c-2.264 0-4.1-1.735-4.1-4 0-2.265 1.836-4 4.1-4H64" fill="#EF836A"/><path d="M59.815 23h-.353C55.362 23 52 27.34 52 31.44v14.844c3.787 0 5.672-1.975 7-4.453V26.905c0-1.33.296-2.657.815-3.904zM84.6 23c-3.065 2.31-7.672 3.48-11.156 8.02-2.224 2.896-3.342 7.21-5.444 10.588v4.677c7 0 7.39-7.868 10.49-11.907C82.763 28.814 88.983 30 88.983 23H84.6z" opacity=".5" fill="#EFEFEF"/><path d="M69.41 16c-4.148 0-7.978 3.11-9.596 7-.518 1.247-.814 2.573-.814 3.904v19.843c4.635 0 7.184-2.22 9-5.138 2.102-3.378 3.22-7.692 5.443-10.59C76.927 26.482 81.535 25.312 84.6 23c1.957-1.476 3.287-3.416 3.287-7H69.41z" opacity=".6" fill="#FFF"/><path d="M75 91H54.08C46.466 91 40 84.648 40 77.03V48" fill="#E5E5E5"/><path d="M45.577 83.556c-.64 0-1.28-.244-1.768-.732-4.366-4.364-11.217-10.966-12.73-12.008-.676-.467-1.08-1.236-1.08-2.06V57.5c0-1.38 1.12-2.5 2.5-2.5H49c1.38 0 2.5 1.12 2.5 2.5S50.38 60 49 60H35v7.547c3.684 3.1 12.25 11.645 12.344 11.74.977.977.977 2.56 0 3.536-.488.49-1.128.733-1.767.733z" fill="#E5E5E5"/><path d="M89 77.03C89 84.65 82.383 91 74.767 91H54.08C46.466 91 40 84.648 40 77.03V48h49v29.03z" fill="#CE6B4D"/><path d="M64 91h-9.92C46.466 91 40 84.648 40 77.03V48h24" fill="#DD744B"/><path d="M45.577 83.556c-.64 0-1.28-.244-1.768-.732-4.366-4.364-11.217-10.966-12.73-12.008-.676-.467-1.08-1.236-1.08-2.06V57.5c0-1.38 1.12-2.5 2.5-2.5H49c1.38 0 2.5 1.12 2.5 2.5S50.38 60 49 60H35v7.547c3.684 3.1 12.25 11.645 12.344 11.74.977.977.977 2.56 0 3.536-.488.49-1.128.733-1.767.733z" fill="#DD744B"/><ellipse transform="rotate(-53.962 64.158 67.53)" cx="64.156" cy="67.527" rx="10.341" ry="7.446" fill="#7A5222"/><path d="M57.835 75.716c-3.255-2.513-3.063-8.215.428-12.736 3.49-4.52 8.96-6.147 12.214-3.634" fill="#895F27"/></svg>