<svg xmlns="http://www.w3.org/2000/svg" viewBox="0 0 128.524 128.524"><circle cx="64.25" cy="64.262" r="64.25" fill="#EFCB6C"/><path d="M59.354 82.02c-2.962-.38-5.17-3.132-4.7-6.074l4.503-28.077c.47-2.943 3.11-5.078 6.072-4.7 2.96.378 5.067 3.11 4.696 6.072l-4.5 28.078c-.472 2.95-3.11 5.077-6.072 4.7z" fill="#F2BF96"/><path d="M71.083 79.197c-2.985.1-5.602-2.268-5.605-5.247l-.023-28.436c-.003-2.98 2.263-5.507 5.247-5.605 2.985-.1 5.5 2.26 5.604 5.247l.024 28.437c.003 2.986-2.262 5.505-5.247 5.603z" fill="#F2BF96"/><path fill="#F2C09E" d="M105.757 44.207l-32.3-13.898-20.22 19.678-.426 18.285 45.01-7.097"/><path d="M83.277 75.38c-2.846.905-6.008-.662-6.82-3.528L68.716 44.49c-.812-2.866.682-5.914 3.53-6.82 2.845-.904 5.906.685 6.817 3.53l7.744 27.362c.814 2.874-.682 5.913-3.53 6.818z" fill="#F2C09E"/><path d="M104.474 37.814c13.057 6.323 17.984 11.99 22.62 13.012 1.305 5.353 2.073 14.186.717 22.874-4.435-3.25-18.483-2.806-22.54-1.972-11.157 2.295-19.984-4.932-20.5-9.176-.518-4.244 10.308-18.44 19.704-24.738z" fill="#FFDCC5"/><path d="M111.405 45.7c-.686 2.906-3.835 5.3-6.53 4.036L71.977 34.322c-2.695-1.263-4.723-3.624-4.038-6.53.685-2.908 3.62-4.717 6.53-4.037l32.897 15.415c2.706 1.267 4.724 3.623 4.038 6.53z" fill="#FFDCC5"/><path d="M50.544 47.61c-1.823-2.367-1.33-5.745.987-7.615l18.012-14.94c2.29-1.9 5.792-1.378 7.614.988 1.822 2.366 1.375 5.785-.988 7.614l-18.01 14.94c-2.3 1.906-5.79 1.38-7.614-.988z" fill="#FFDCC5"/><path d="M45.496 77.868c-2.905-.694-4.804-3.668-4.02-6.542l7.493-27.432c.784-2.874 3.637-4.713 6.54-4.02 2.906.695 4.707 3.636 4.02 6.543L52.036 73.85c-.787 2.882-3.636 4.712-6.54 4.018zM68.495 40.022C73.395 41.49 93.3 47.99 84.318 57.3c-8.984 9.31 23.184.042 23.184.042L98.7 38.05S71.234 23.682 68.494 40.02z" fill="#FFDCC5"/><path fill="#B1C95D" d="M26 59.012h63v41H26z"/><path fill="#E7FFE1" d="M31 65.012h32v10H31z"/><circle cx="81.754" cy="70.055" r="5.017" fill="#E7FFE1"/><circle cx="76.498" cy="70.055" r="5.017" fill="#E7FFE1"/><path fill="#6D8467" d="M26 88.012h63v7H26z"/><path d="M93.796 60.755c1.04 3.35-.79 7.18-4.194 7.98l-30.77 7.238c-3.406.8-6.94-.846-7.98-4.195-1.042-3.348.847-6.93 4.194-7.98l30.77-7.236c3.416-.805 6.94.844 7.98 4.193z" fill="#FFDCC5"/><path d="M112.392 55.57c1.04 3.348-.79 7.178-4.194 7.98l-30.77 7.237c-3.406.8-6.94-.846-7.98-4.195-1.042-3.35.847-6.93 4.194-7.98l30.77-7.236c3.416-.805 6.94.844 7.98 4.193z" fill="#FFDCC5"/></svg>