<svg xmlns="http://www.w3.org/2000/svg" viewBox="0 0 128 128"><circle cx="64" cy="64" r="64" fill="#FCCC66"/><path fill="#4E4E51" d="M61.737 55h5v51h-5zM91.737 62v11h-12v4h15V62M36.737 73V62h-3v15h15v-4"/><path fill="#4E4E51" d="M40.737 71h47v9h-47z"/><path fill="#5C5D61" d="M83.33 61H46.288l-5.005-41h47.053"/><circle cx="64.809" cy="41.135" r="3.821" fill="#F3F4F8"/><path d="M38.737 65.604c0 1.876-1.52 3.396-3.396 3.396h-.207c-1.876 0-3.396-1.52-3.396-3.396v-3.208c0-1.876 1.52-3.396 3.396-3.396h.208c1.877 0 3.397 1.52 3.397 3.396v3.208zM96.737 65.604c0 1.876-1.52 3.396-3.396 3.396h-.207c-1.876 0-3.396-1.52-3.396-3.396v-3.208c0-1.876 1.52-3.396 3.396-3.396h.208c1.877 0 3.397 1.52 3.397 3.396v3.208z" fill="#5C5D61"/><path d="M46.856 100h-4c0-3 2.72-6 5.82-6h31.416c3.155 0 5.82 3 5.82 6h-4c0-1-.868-2-1.82-2H48.677c-.902 0-1.82 1-1.82 2z" fill="#4E4E51"/><path d="M46.737 103.5c0 1.38-1.12 2.5-2.5 2.5s-2.5-1.12-2.5-2.5v-2c0-1.38 1.12-2.5 2.5-2.5s2.5 1.12 2.5 2.5v2zM66.737 107.5c0 1.38-1.12 2.5-2.5 2.5s-2.5-1.12-2.5-2.5v-2c0-1.38 1.12-2.5 2.5-2.5s2.5 1.12 2.5 2.5v2zM85.737 103.5c0 1.38-1.12 2.5-2.5 2.5s-2.5-1.12-2.5-2.5v-2c0-1.38 1.12-2.5 2.5-2.5s2.5 1.12 2.5 2.5v2z" fill="#F3F4F8"/></svg>