<svg xmlns="http://www.w3.org/2000/svg" viewBox="0 0 128.5 128.5"><circle cx="64.25" cy="64.25" r="64.25" fill="#B1C95D"/><path fill="#DDA272" d="M105 99H30V38h21v5h54"/><path fill="#FFF" d="M94 92H39V20h36.98l9.796 9.93L94 38.437"/><path fill="#D8D8D8" d="M76 38h17.642L76 19.713M68 28H45c-1.105 0-2-.896-2-2s.895-2 2-2h23c1.104 0 2 .896 2 2s-.896 2-2 2zM55 37H44c-.553 0-1-.448-1-1s.447-1 1-1h11c.553 0 1 .448 1 1s-.447 1-1 1zM68 37h-8c-.553 0-1-.448-1-1s.447-1 1-1h8c.553 0 1 .448 1 1s-.447 1-1 1zM76 50H64c-.553 0-1-.448-1-1s.447-1 1-1h12c.553 0 1 .448 1 1s-.447 1-1 1zM88 50h-7c-.553 0-1-.448-1-1s.447-1 1-1h7c.553 0 1 .448 1 1s-.447 1-1 1zM73 43H57c-.553 0-1-.448-1-1s.447-1 1-1h16c.553 0 1 .448 1 1s-.447 1-1 1zM59 50H44c-.553 0-1-.448-1-1s.447-1 1-1h15c.553 0 1 .448 1 1s-.447 1-1 1zM53 43h-9c-.553 0-1-.448-1-1s.447-1 1-1h9c.553 0 1 .448 1 1s-.447 1-1 1zM88 43H78c-.553 0-1-.448-1-1s.447-1 1-1h10c.553 0 1 .448 1 1s-.447 1-1 1zM73 56H57c-.553 0-1-.448-1-1s.447-1 1-1h16c.553 0 1 .448 1 1s-.447 1-1 1zM53 56h-9c-.553 0-1-.448-1-1s.447-1 1-1h9c.553 0 1 .448 1 1s-.447 1-1 1zM88 56H78c-.553 0-1-.448-1-1s.447-1 1-1h10c.553 0 1 .448 1 1s-.447 1-1 1z"/><path fill="#EFB67F" d="M105 99H29.757L18.872 57.713 17 52h27.15l1.87 6h48.096"/><path fill="#FFF" d="M58.357 92H36.735L33.81 80h21.62M43.378 57h-21.62l-1.055-3h21.62"/><path d="M90 82H67c-.553 0-1-.448-1-1s.447-1 1-1h23c.553 0 1 .448 1 1s-.447 1-1 1zM91 86H68c-.553 0-1-.448-1-1s.447-1 1-1h23c.553 0 1 .448 1 1s-.447 1-1 1zM92 91H70c-.553 0-1-.448-1-1s.447-1 1-1h22c.553 0 1 .448 1 1s-.447 1-1 1z" fill="#DDA272"/></svg>