<svg xmlns="http://www.w3.org/2000/svg" viewBox="0 0 128 128"><circle cx="64" cy="64" r="64" fill="#2ECBD0"/><path fill="#D9D9D9" d="M52.528 26.875h43v62h-43z"/><path fill="#FFF" d="M55.612 35h35v2h-35zM55.612 43h35v2h-35zM55.612 51h35v2h-35zM55.612 59h35v2h-35zM55.612 67h35v2h-35zM55.612 75h35v2h-35z"/><path fill="#F7F7F7" d="M75.873 49.35L66.01 38.664H32.473v62.46h43.4"/><path fill="#FFF" d="M75.873 49l-11.26-10.335V49"/><path fill="#D8D9DB" d="M35.612 53h35v2h-35zM35.612 61h35v2h-35zM35.612 69h35v2h-35zM35.612 77h35v2h-35zM35.612 85h35v2h-35zM35.612 93h35v2h-35z"/></svg>