<svg xmlns="http://www.w3.org/2000/svg" viewBox="0 0 128.5 128.5"><circle cx="64.25" cy="64.25" r="64.25" fill="#B1C95D"/><path fill="#EFCB6C" d="M26 26.667h20v77H26z"/><circle cx="35.97" cy="37.612" r="3.703" fill="#FFF"/><path d="M35 97.958c0 .944-.765 1.71-1.71 1.71h-.58c-.945 0-1.71-.766-1.71-1.71V68.376c0-.944.765-1.71 1.71-1.71h.58c.945 0 1.71.766 1.71 1.71v29.582zM42 96.958c0 .944-.765 1.71-1.71 1.71h-.58c-.945 0-1.71-.766-1.71-1.71V79.376c0-.944.765-1.71 1.71-1.71h.58c.945 0 1.71.766 1.71 1.71v17.582zM42 74.958c0 .944-.765 1.71-1.71 1.71h-.58c-.945 0-1.71-.766-1.71-1.71v-6.582c0-.944.765-1.71 1.71-1.71h.58c.945 0 1.71.766 1.71 1.71v6.582z" fill="#CAA347"/><path fill="#B9E3ED" d="M46 26.667h20v77H46z"/><circle cx="55.909" cy="37.612" r="3.703" fill="#FFF"/><path d="M55 97.958c0 .944-.765 1.71-1.71 1.71h-.58c-.945 0-1.71-.766-1.71-1.71V68.376c0-.944.765-1.71 1.71-1.71h.58c.945 0 1.71.766 1.71 1.71v29.582zM62 96.958c0 .944-.765 1.71-1.71 1.71h-.58c-.945 0-1.71-.766-1.71-1.71V79.376c0-.944.765-1.71 1.71-1.71h.58c.945 0 1.71.766 1.71 1.71v17.582zM62 74.958c0 .944-.765 1.71-1.71 1.71h-.58c-.945 0-1.71-.766-1.71-1.71v-6.582c0-.944.765-1.71 1.71-1.71h.58c.945 0 1.71.766 1.71 1.71v6.582z" fill="#72A8B0"/><path fill="#FFBAB0" d="M113.38 95.526l-18.41 7.655-29.31-70.493 18.413-7.655z"/><circle cx="78.914" cy="38.59" r="3.703" fill="#FFF"/><path d="M100.674 94.634c.362.872-.05 1.872-.922 2.234-.872.362-1.872-.05-2.234-.922L86.363 69.118c-.362-.872.05-1.872.922-2.234.87-.362 1.872.05 2.234.922l11.154 26.828zM106.986 92.01c.362.87-.05 1.87-.922 2.233-.872.362-1.872-.05-2.234-.922l-6.78-16.306c-.362-.872.05-1.872.922-2.234.872-.362 1.872.05 2.234.922l6.78 16.307zM98.237 70.968c.362.872-.05 1.872-.922 2.234-.872.362-1.872-.05-2.234-.922l-2.405-5.786c-.362-.87.05-1.872.922-2.234.87-.362 1.872.05 2.234.922l2.407 5.786z" fill="#B57770"/></svg>