<svg xmlns="http://www.w3.org/2000/svg" viewBox="0 0 128.5 128.5"><circle cx="64.25" cy="64.25" r="64.25" fill="#EF8D6F"/><path d="M105 87.75c0 2.875-2.16 5.25-5.037 5.25H31.66c-2.876 0-5.207-2.353-5.207-5.228L20.83 37.24c0-2.876 2.33-5.24 5.206-5.24h73.927c2.875 0 5.037 2.375 5.037 5.25v50.5z" fill="#D8D8D8"/><path d="M63 93H31.763C28.888 93 21 90.4 21 87.524V37.476C21 34.6 23.265 32 26.14 32H63" fill="#EAEAEA"/><path d="M99 82.638C99 85.048 97.047 87 94.638 87H31.362C28.952 87 27 85.047 27 82.638V41.362C27 38.952 28.953 37 31.362 37h63.276C97.048 37 99 38.953 99 41.362v41.276z" fill="#4A7AAF"/><path d="M109.855 84c0 7-3.108 9-6.942 9H23.086c-3.834 0-6.942-2-6.942-9h93.711z" fill="#EAEAEA"/><path d="M63 93H23.086c-3.834 0-6.942-2-6.942-9H63" fill="#F7F7F7"/><path d="M63.442 46.145c7.568 0 13.703 6.135 13.703 13.703S71.01 73.55 63.442 73.55 49.74 67.417 49.74 59.85s6.134-13.703 13.702-13.703m0-1.768c-8.53 0-15.47 6.94-15.47 15.47S54.91 75.32 63.44 75.32s15.47-6.94 15.47-15.472-6.94-15.47-15.47-15.47z" fill="#FCFCFC"/><path d="M59 51.52l6.555 3.875 6.55 3.874-6.553 3.873L59 67.017V52m.022-2.247c-.302 0-.73.077-1.002.232-.553.314-1.02.9-1.02 1.536v15.497c0 .635.467 1.22 1.02 1.536.27.155.636.232.938.232.312 0 .655-.082.932-.247l6.56-3.874 6.552-3.874c.538-.318.87-.897.87-1.52 0-.626-.327-1.204-.865-1.522l-6.543-3.874L59.92 50c-.276-.165-.587-.247-.898-.247z" fill="#FCFCFC"/></svg>