<svg xmlns="http://www.w3.org/2000/svg" viewBox="0 0 128 128"><circle cx="64" cy="64" r="64" fill="#FF8E6E"/><path d="M63.977 26.368c-9.49 0-23.2 7.382-23.2 22.146s10.545 13.71 12.654 39.02c2.11 1.055 4.22 1.39 10.547 1.39 6.327 0 8.437-.335 10.546-1.39 2.11-25.31 12.655-24.256 12.655-39.02 0-14.764-13.71-22.146-23.2-22.146z" fill="#F9FAF5"/><path d="M73.468 92.06c0 1.164-.944 2.108-2.11 2.108H56.595c-1.165 0-2.11-.944-2.11-2.11 0-1.164.945-2.108 2.11-2.108h14.764c1.166 0 2.11.944 2.11 2.11z" fill="#D9D9D9"/><path d="M63.977 102.254c3.495 0 6.327-1.254 6.327-4.254H57.65c0 3 2.832 4.254 6.327 4.254z" fill="#6A6D58"/><path d="M73.468 95.807c0 .874-.708 1.582-1.582 1.582h-15.82c-.873 0-1.58-.71-1.58-1.583 0-.874.707-1.582 1.58-1.582h15.82c.874 0 1.582.708 1.582 1.582z" fill="#D9D9D9"/><path d="M64.075 89.785l-1.99-.185c.006-.104.46-10.505 1.063-18.787-.025-.43-.055-.85-.088-1.26-5.8-.018-10.466-5.747-10.466-10.492 0-4.74 3.516-6.272 5.218-6.272 1.206 0 4.353 2.406 6.144 9.588.09-.612.18-1.094.268-1.448 1.074-4.297 5.523-9.195 8.353-9.195 2.063 0 3.11 1.756 3.11 5.22 0 1.46-5.342 10.108-10.403 12.146-.045.562-.09 1.14-.132 1.728.306 5.432-.056 11.81-1.077 18.957zm-6.347-34.988c-.51.07-3.134.612-3.134 4.264 0 3.76 3.79 8.338 8.265 8.488-1.108-9.138-4.244-12.336-5.132-12.75zm14.848-1.064c-1.44 0-5.4 3.633-6.413 7.68-.15.6-.384 2.023-.687 5.38 3.9-2.238 7.872-8.655 8.21-9.91-.008-2.09-.38-3.15-1.11-3.15z" fill="#FF8E6E"/><path d="M74.468 88.5c0 1.166-1.044 2.11-2.33 2.11h-16.32c-1.29 0-2.332-.944-2.332-2.11 0-1.164 1.044-2.108 2.33-2.108h16.32c1.288 0 2.332.944 2.332 2.11z" fill="#D9D9D9"/><g fill="#F9FAEF" opacity=".1"><path d="M74.522 87.46c2.11-25.31 12.275-24.22 12.275-38.983S73.217 26.37 63.217 26.37V74h1.015c.058 3-.016 4.436-1.016 7.61v7.313c5 0 6.566-.28 8.247-.622 1.053-.213 2.248-.435 3.06-.84z"/><path d="M63.216 92.702v8.929c5 0 7.088.368 7.088-1.632h1.582c.874 0 1.582-1.514 1.582-2.387 0-.512-.247-1.368-.624-1.657-.38.378-.906.398-1.485.398.578 0 1.1-.434 1.482-.81l.002-.048c.386-.382.625-.88.625-1.466 0-.75-.396-1.344-.987-1.718-.326.207-.71.397-1.124.397.413 0 .797-.374 1.123-.58-.326-.207-.71-.58-1.124-.58.413 0 .797.325 1.123.53.59-.373.986-.927.986-1.678 0-.997-1.075-1.778-2.005-1.998-1.682.343-3.247.52-8.247.52V92.7h-.002z"/></g></svg>