<svg xmlns="http://www.w3.org/2000/svg" viewBox="0 0 128.5 128.5"><circle cx="64.25" cy="64.25" r="64.25" fill="#B1C95D"/><path d="M40 73v50.75c4.44 1.812 9.127 3.145 14 3.926V63L40 73z" fill="#EFB67F"/><path d="M68 53H54v74.677c3.34.535 6.76.823 10.25.823 1.26 0 2.508-.046 3.75-.117V53z" fill="#EFCB6C"/><path d="M82 72L68 60v68.383c4.83-.278 9.513-1.098 14-2.386V72z" fill="#EFB67F"/><path d="M82 75v50.996c4.937-1.417 9.628-3.407 14-5.898V61L82 75z" fill="#EFCB6C"/><path d="M96 50v70.1c5.154-2.937 9.865-6.557 14-10.752V34L96 50z" fill="#EFB67F"/><path d="M26 66v49.872c4.287 3.182 8.987 5.833 14 7.878V73l-14-7z" fill="#EFCB6C"/><path d="M26 65l-14 2V101.617c3.902 5.446 8.623 10.264 14 14.255V65z" fill="#EFB67F"/><path d="M12 73l-9.24 9.9c2.054 6.784 5.206 13.087 9.24 18.717V73z" fill="#EFCB6C"/><path d="M5 84c-.95 0-1.903-.336-2.667-1.02-1.647-1.473-1.787-4-.314-5.647l17-19c1.435-1.606 3.886-1.785 5.54-.406l14.964 12.47L60.29 46.07c.803-.94 1.976-1.46 3.23-1.4 1.233.06 2.372.684 3.083 1.693l16.775 23.81 15.707-32.1-4.74 1.693c-2.084.746-4.368-.34-5.11-2.42-.744-2.082.34-4.37 2.42-5.113l14-5c1.534-.548 3.244-.11 4.328 1.1 1.084 1.215 1.325 2.964.61 4.425l-23 47c-.62 1.27-1.866 2.117-3.275 2.23-1.408.118-2.773-.53-3.587-1.685l-17.7-25.12-19.988 23.414c-1.422 1.667-3.92 1.877-5.603.476L22.405 66.545 7.98 82.667C7.19 83.55 6.097 84 5 84z" fill="#EF8D6F"/><path d="M110.996 50c-1.868 0-3.538-1.314-3.918-3.216l-3-15c-.434-2.166.97-4.274 3.138-4.706 2.17-.438 4.273.972 4.706 3.138l3 15c.434 2.166-.97 4.273-3.138 4.706-.265.054-.528.08-.788.08z" fill="#EF8D6F"/></svg>