<svg xmlns="http://www.w3.org/2000/svg" viewBox="0 0 128 128"><circle cx="64" cy="64" r="64" fill="#A8C954"/><path d="M43.033 27.556S47.478 40.89 63.036 40.89 84.15 27.557 84.15 27.557s-5.556 1.11-8.89 1.11-4.445-4.444-7.78-4.444-4.444 4.445-6.667 4.445S56.368 22 54.145 22c-2.222 0-4.445 6.667-5.556 6.667-1.112 0-5.557-1.11-5.557-1.11z" fill="#486380"/><path d="M84.15 27.556s-5.556 1.11-8.89 1.11-3.754-4.444-7.088-4.444c-2.196 0-2.956.98-3.956 2.296v14.367l-.49.006c15.56.002 20.424-13.334 20.424-13.334z" fill="#607484"/><path d="M61.864 40.496c-25 1.42-32.63 43.698-32.63 48.07 0 3.017.832 5.236 2.825 8.267C34.05 99.865 43.635 106 64.635 106h-.303.167c21 0 29.373-5.167 32.744-9.167 0 0 .325-.335.512-.766 2.008-2.896 1.583-6.18 1.51-7.46-.25-4.362-7.4-46.636-33.4-48.088l-4.002-.024z" fill="#34495E"/><g fill="#607484"><path d="M64.47 105.667h-.137.136zM66.04 40.5l-1.824-.002v65.164s.183.005.367.005c20.945-.012 29.215-4.88 32.58-8.874 0 0 .282-.19.47-.62 2.008-2.896 1.83-6.08 1.758-7.36-.25-4.363-7.35-46.862-33.35-48.314z"/></g><path d="M63.275 85.67c-.768-.028-1.6-.103-2.5-.22-.9-.12-1.742-.312-2.523-.576-.782-.266-1.438-.598-1.97-.996-.53-.398-.796-.893-.796-1.483 0-.442.154-.84.464-1.194.31-.353.7-.53 1.173-.53.295 0 .62.074.975.22.354.15.774.32 1.26.51.488.193 1.048.37 1.683.532.636.162 1.38.258 2.236.287V72.126c-.974-.324-1.918-.68-2.832-1.063-.915-.383-1.742-.87-2.48-1.46-.737-.59-1.327-1.32-1.77-2.19s-.664-1.97-.664-3.3c0-2.33.692-4.166 2.08-5.51 1.387-1.342 3.275-2.116 5.665-2.323v-2.167c0-.325.11-.598.332-.82.222-.22.494-.33.82-.33.323 0 .596.11.817.33.222.223.332.495.332.82v2.168c.648.06 1.35.142 2.103.245.75.104 1.452.272 2.102.51.648.235 1.188.53 1.615.884.428.353.642.796.642 1.327 0 .442-.156.834-.466 1.173-.31.34-.745.51-1.306.51-.325 0-.635-.052-.93-.155-.295-.104-.62-.222-.974-.354-.354-.132-.752-.265-1.194-.397-.443-.133-.974-.228-1.594-.288v9.517c.944.325 1.88.68 2.81 1.062.93.385 1.756.87 2.48 1.46.723.592 1.313 1.33 1.77 2.214.458.886.687 1.978.687 3.275 0 1.21-.19 2.287-.575 3.23-.384.945-.922 1.77-1.615 2.48-.693.708-1.513 1.283-2.456 1.726-.945.44-1.978.737-3.1.885v2.213c0 .324-.11.598-.33.818-.223.222-.495.332-.82.332-.324 0-.597-.11-.818-.332-.222-.22-.333-.494-.333-.818V85.67h-.002zM61.77 67.833c.236.12.48.23.73.332.25.104.51.215.774.332v-8.72c-.56.09-1.084.222-1.57.4-.487.176-.916.427-1.284.75-.37.326-.664.725-.885 1.196-.222.473-.332 1.048-.332 1.726 0 .62.088 1.158.266 1.615.176.457.39.84.64 1.15.25.31.525.56.82.753.294.192.574.347.84.465zm7.834 9.782c0-1.27-.28-2.198-.84-2.79-.562-.59-1.122-1.017-1.683-1.282-.235-.117-.478-.23-.73-.332-.25-.102-.508-.198-.773-.287v9.162c2.684-.443 4.027-1.932 4.027-4.47z" fill="#F7F7F7"/></svg>