<svg xmlns="http://www.w3.org/2000/svg" viewBox="0 0 128.5 128.5"><circle cx="64.25" cy="64.25" r="64.25" fill="#78CACE"/><path fill="#B1C95D" d="M59 62h52v29H59z"/><ellipse cx="83.852" cy="76.433" rx="7.239" ry="10.406" fill="#9EB249"/><circle cx="106.925" cy="86.386" r="4.072" fill="#9EB249"/><circle cx="106.925" cy="66.48" r="4.072" fill="#9EB249"/><circle cx="62.588" cy="86.386" r="4.072" fill="#9EB249"/><circle cx="62.588" cy="66.48" r="4.072" fill="#9EB249"/><path fill="#9EB249" d="M59 62h52v3H59zM59 88h52v3H59z"/><path fill="#9EB249" d="M59 62h2v27h-2zM108 62h3v27h-3z"/><path fill="#B1C95D" d="M59 56h52v29H59z"/><ellipse cx="83.852" cy="70.151" rx="7.239" ry="10.406" fill="#9EB249"/><circle cx="106.925" cy="80.104" r="4.072" fill="#9EB249"/><circle cx="106.925" cy="60.198" r="4.072" fill="#9EB249"/><circle cx="62.588" cy="80.104" r="4.072" fill="#9EB249"/><circle cx="62.588" cy="60.198" r="4.072" fill="#9EB249"/><path fill="#9EB249" d="M59 56h52v3H59zM59 82h52v3H59z"/><path fill="#9EB249" d="M59 56h2v27h-2zM108 56h3v27h-3z"/><g><path fill="#B1C95D" d="M59 50h52v28H59z"/><ellipse cx="83.852" cy="63.869" rx="7.239" ry="10.406" fill="#9EB249"/><circle cx="106.925" cy="73.822" r="4.072" fill="#9EB249"/><circle cx="106.925" cy="54.916" r="4.072" fill="#9EB249"/><circle cx="62.588" cy="73.822" r="4.072" fill="#9EB249"/><circle cx="62.588" cy="53.916" r="4.072" fill="#9EB249"/><path fill="#9EB249" d="M59 50h52v2H59zM59 76h52v2H59z"/><path fill="#9EB249" d="M59 50h2v27h-2zM108 50h3v27h-3z"/></g><g><path fill="#B1C95D" d="M21 62h52v29H21z"/><ellipse cx="45.852" cy="76.433" rx="7.239" ry="10.406" fill="#9EB249"/><circle cx="68.925" cy="86.386" r="4.072" fill="#9EB249"/><circle cx="68.925" cy="66.48" r="4.072" fill="#9EB249"/><circle cx="25.588" cy="86.386" r="4.072" fill="#9EB249"/><path d="M28.66 66.48c0 2.25-1.823 4.072-4.072 4.072s-2.072-1.823-2.072-4.072-.177-4.072 2.072-4.072c2.25 0 4.072 1.823 4.072 4.072z" fill="#9EB249"/><path fill="#9EB249" d="M21 62h52v3H21zM21 88h52v3H21z"/><path fill="#9EB249" d="M21 62h2v27h-2zM70 62h3v27h-3z"/></g><g><path fill="#B1C95D" d="M21 56h52v29H21z"/><ellipse cx="45.852" cy="70.151" rx="7.239" ry="10.406" fill="#9EB249"/><circle cx="68.925" cy="80.104" r="4.072" fill="#9EB249"/><circle cx="68.925" cy="60.198" r="4.072" fill="#9EB249"/><circle cx="25.588" cy="80.104" r="4.072" fill="#9EB249"/><path d="M28.66 60.198c0 2.25-1.823 4.072-4.072 4.072s-2.072-1.823-2.072-4.072-.177-4.072 2.072-4.072c2.25 0 4.072 1.823 4.072 4.072z" fill="#9EB249"/><path fill="#9EB249" d="M21 56h52v3H21zM21 82h52v3H21z"/><path fill="#9EB249" d="M21 56h2v27h-2zM70 56h3v27h-3z"/></g><g><path fill="#B1C95D" d="M21 50h52v28H21z"/><ellipse cx="45.852" cy="63.869" rx="7.239" ry="10.406" fill="#9EB249"/><circle cx="68.925" cy="73.822" r="4.072" fill="#9EB249"/><circle cx="68.925" cy="53.916" r="4.072" fill="#9EB249"/><circle cx="25.588" cy="73.822" r="4.072" fill="#9EB249"/><circle cx="25.588" cy="53.916" r="4.072" fill="#9EB249"/><path fill="#9EB249" d="M21 50h52v2H21zM21 76h52v2H21z"/><path fill="#9EB249" d="M21 50h2v27h-2zM70 50h3v27h-3z"/></g><g><path fill="#B1C95D" d="M21 43h52v29H21z"/><ellipse cx="45.852" cy="57.587" rx="7.239" ry="10.406" fill="#9EB249"/><circle cx="68.925" cy="67.54" r="4.072" fill="#9EB249"/><circle cx="68.925" cy="47.634" r="4.072" fill="#9EB249"/><circle cx="25.588" cy="67.54" r="4.072" fill="#9EB249"/><path d="M28.66 47.634c0 2.25-1.823 4.072-4.072 4.072C22.34 51.706 21 50.25 21 48s1.34-4.438 3.588-4.438c2.25 0 4.072 1.823 4.072 4.072z" fill="#9EB249"/><path fill="#9EB249" d="M21 43h52v3H21zM21 69h52v3H21z"/><path fill="#9EB249" d="M21 43h2v27h-2zM70 43h3v27h-3z"/></g><g><path fill="#B1C95D" d="M21 37h52v29H21z"/><ellipse cx="45.852" cy="51.306" rx="7.239" ry="10.406" fill="#9EB249"/><circle cx="68.925" cy="61.259" r="4.072" fill="#9EB249"/><circle cx="68.925" cy="41.352" r="4.072" fill="#9EB249"/><circle cx="25.588" cy="61.259" r="4.072" fill="#9EB249"/><circle cx="25.588" cy="41.352" r="4.072" fill="#9EB249"/><path fill="#9EB249" d="M21 37h52v3H21zM21 63h52v3H21z"/><path fill="#9EB249" d="M21 37h2v27h-2zM70 37h3v27h-3z"/></g><path d="M50.835 70.234c2.035 2.377 4.118 4.156 6.23 5.338 2.106 1.184 4.265 1.767 6.47 1.767 1.792 0 3.265-.512 4.45-1.547 1.18-1.038 1.766-2.33 1.766-3.877 0-1.695-.487-3-1.474-3.913-.986-.914-3.242-1.853-6.765-2.803-5.362-1.475-9.115-3.315-11.274-5.523-2.157-2.19-3.23-5.216-3.23-9.042 0-4.717 1.488-8.532 4.45-11.457 2.962-2.938 7.107-4.668 12.445-5.217V29h4.608l.036 4.887c2.072.22 4.107.695 6.106 1.452 2 .742 3.974 1.778 5.924 3.083L76.04 48.6c-1.596-1.355-3.24-2.377-4.936-3.073-1.682-.695-3.377-1.035-5.06-1.035-1.717 0-3.095.4-4.142 1.193-1.05.804-1.572 1.84-1.572 3.12 0 1.318.462 2.365 1.39 3.146.925.793 2.754 1.536 5.47 2.255l.465.135c5.85 1.57 9.688 3.314 11.53 5.215 1.23 1.292 2.18 2.828 2.826 4.608.66 1.793.99 3.766.99 5.936 0 4.948-1.5 9.057-4.498 12.31-2.998 3.266-7.008 5.156-12.03 5.68v8.68h-4.607v-8.532c-3.377-.05-6.486-.684-9.325-1.89-2.828-1.22-5.558-3.096-8.18-5.645l6.475-10.47z" fill="#EFCB6C"/></svg>