<svg xmlns="http://www.w3.org/2000/svg" viewBox="0 0 128.5 128.5"><circle cx="64.25" cy="64.25" r="64.25" fill="#78CACE"/><path d="M103.454 73.267c-3.893 0-8.387-1.787-12.66-6.06l-42-42c-3.448-3.447-7.176-5.364-10.783-5.544-3.083-.15-5.99.975-8.193 3.177-4.257 4.257-5.392 12.17.89 18.453l12 12-1.414 1.414-12-12c-7.2-7.2-5.833-16.338-.89-21.28 2.608-2.608 6.05-3.945 9.708-3.76 4.11.204 8.293 2.323 12.097 6.126l42 42c3.202 3.202 6.7 5.08 10.114 5.43 2.95.303 5.603-.56 7.473-2.43 3.512-3.513 3.915-10.67-3.5-18.086l-22-22c-4.58-4.578-6.24-10.29-4.56-15.673 1.474-4.718 5.34-8.186 10.087-9.05l.358 1.968c-4.015.73-7.286 3.673-8.537 7.678-1.45 4.648.03 9.628 4.065 13.663l22 22c3.745 3.745 5.972 7.806 6.442 11.745.428 3.588-.617 6.844-2.942 9.17-1.92 1.92-4.643 3.06-7.75 3.06z" fill="#D8D8D8"/><path d="M83.567 66.368c8.2 8.2 8.2 21.497 0 29.7-8.2 8.2-21.498 8.2-29.7 0L40.434 82.63c-8.2-8.2-8.2-21.497 0-29.698 8.2-8.2 21.497-8.2 29.698 0l13.437 13.434z" fill="#EAEAEA"/><path d="M83.744 95.89c-8.202 8.2-21.675 8.377-29.877.175L40.434 82.633c-8.202-8.202-8.114-21.587.088-29.79" fill="#F7F7F7"/><path d="M43.262 84.046l-2.12-2.12c-8.202-8.202-8.556-21.144-.355-29.346 8.202-8.202 21.145-7.847 29.346.355l2.12 2.12" fill="#D8D8D8"/><path d="M42.555 84.753l-2.12-2.12c-8.202-8.202-8.026-21.676.176-29.877 7.016 7.015 8.78 9.103 16.98 17.305" fill="#EAEAEA"/><path d="M55.648 62.49c1.36 1.36 1.36 3.566 0 4.926l-.025.024c-1.36 1.36-3.565 1.36-4.925 0l-6.388-6.39c-1.36-1.36-1.36-3.564 0-4.924l.024-.024c1.36-1.36 3.565-1.36 4.925 0l6.388 6.39z" fill="#EAEAEA"/><path d="M55.706 67.51c-1.36 1.36-3.57 1.367-4.93.007l-6.27-6.268c-1.36-1.36-1.357-3.57.003-4.93" fill="#FFF"/></svg>