<svg xmlns="http://www.w3.org/2000/svg" viewBox="0 0 128.5 128.5"><circle cx="64.25" cy="64.25" r="64.25" fill="#EFCB6C"/><path fill="#FFF" d="M100 104.667H29v-80.12l4.935-4.88H96.13l3.87 4.88"/><path fill="#86C8CE" d="M100 108.667H29v-85h71"/><path fill="#A4DAE3" d="M64 108.667H29v-85h35"/><path fill="#FFF" d="M47 32.667h36v18H47z"/><path d="M38 42.375c0 1.266-1.026 2.29-2.29 2.29H26.29c-1.266 0-2.29-1.025-2.29-2.29v-.417c0-1.266 1.025-2.29 2.29-2.29h9.417c1.265 0 2.29 1.025 2.29 2.29v.417zM38 51.375c0 1.266-1.026 2.29-2.29 2.29H26.29c-1.266 0-2.29-1.025-2.29-2.29v-.417c0-1.266 1.025-2.29 2.29-2.29h9.417c1.265 0 2.29 1.025 2.29 2.29v.417zM37 86.375c0 1.266-1.026 2.29-2.29 2.29H25.29c-1.266 0-2.29-1.025-2.29-2.29v-.417c0-1.266 1.025-2.29 2.29-2.29h9.417c1.265 0 2.29 1.025 2.29 2.29v.417zM37 93.375c0 1.266-1.026 2.29-2.29 2.29H25.29c-1.266 0-2.29-1.025-2.29-2.29v-.417c0-1.266 1.025-2.29 2.29-2.29h9.417c1.265 0 2.29 1.025 2.29 2.29v.417z" fill="#86C8CE"/><path d="M112.158 44.622l-1.755-1.043c-.16-.096-.367-.042-.46.117l-6.148 10.348c-.094.16-.042.366.117.46l1.756 1.044c.16.093.366.04.46-.12l6.148-10.347c.094-.16.04-.367-.118-.46z" fill="#D68E0F"/><path d="M111.297 44.036l-.894-.457c-.16-.096-.367-.042-.46.117l-6.148 10.348c-.094.16-.042.366.117.46l.886.53" fill="#F3A50D"/><path d="M92.112 69.69c-.468-1.114-.448-1.597-.45-2.043-.002-.27.076-.625.25-1.147.265-.79 3.226-6.02 6.058-10.78 2.315-3.886 4.56-7.482 5.208-8.133 1.572-1.578 2.79-.825 3.824-.185l.006.003c.034.02.078.048.25.15.28.166.37.527.205.805s-.526.37-.804.205l-.27-.167-.376.775c-.695-.898-1.702-.292-2.43.926-.783 1.31-1.682 2.82-3.953 6.635-2.795 4.696-5.264 9.162-6.218 10.552m13.59-19.884l.004.002-.003-.002z" fill="#F3A50D"/><path d="M110.39 49.155l-1.574-.934-1.548-.92c-.283-.167-.652-.073-.82.21L82.28 88.39c-.657 1.11-7.194 13.663-6.552 14.044l.827.49.677.403c.552.328 8.54-11.36 9.2-12.474l24.17-40.88c.166-.282.072-.65-.21-.818z" fill="#BA5B54"/><path d="M108.816 48.22l-1.548-.92c-.283-.167-.652-.073-.82.21L82.28 88.39c-.657 1.11-7.194 13.663-6.552 14.044l.827.49" fill="#EA7663"/><path fill="#134A56" d="M75.725 102.435l-.522 2.986 2.025-2.092"/><path d="M66 58.667H49c-1.105 0-2-.896-2-2s.895-2 2-2h17c1.104 0 2 .896 2 2s-.896 2-2 2zM81 58.667h-9c-1.105 0-2-.896-2-2s.895-2 2-2h9c1.104 0 2 .896 2 2s-.896 2-2 2zM81 65.667H64c-1.105 0-2-.896-2-2s.895-2 2-2h17c1.104 0 2 .896 2 2s-.896 2-2 2zM58 65.667h-9c-1.105 0-2-.896-2-2s.895-2 2-2h9c1.104 0 2 .896 2 2s-.896 2-2 2z" fill="#FFF"/></svg>