<svg xmlns="http://www.w3.org/2000/svg" viewBox="0 0 128 128"><circle cx="64" cy="64" r="64" fill="#A8C954"/><path fill="#575947" d="M32.973 43h18v55h-18zM77.973 43h18v55h-18z"/><path fill="#6A6D58" d="M47.973 36h33v62h-33z"/><path fill="#6A6D58" d="M52.973 30h23v9h-23z"/><path fill="#A4B09F" d="M47.973 40h33v4h-33zM47.973 52h33v4h-33zM47.973 65h33v4h-33zM47.973 77h33v4h-33zM47.973 89h33v4h-33z"/><path fill="#6A6D58" d="M59.167 30h13.666l-6.43-12.863M35.973 46h3v52h-3zM42.973 46h3v52h-3zM82.973 46h11v11h-11zM82.973 60h11v11h-11zM82.973 75h11v11h-11zM84.973 89h7v9h-7z"/></svg>