<svg xmlns="http://www.w3.org/2000/svg" viewBox="0 0 128 128"><circle cx="64" cy="64" r="64" fill="#A8C954"/><path d="M47.612 52V35.913c0-4.923 3.878-8.913 8.8-8.913h16.175c4.923 0 9.025 3.99 9.025 8.913V52h6V35.913c0-8.236-6.79-14.913-15.025-14.913H56.413c-8.236 0-14.8 6.677-14.8 14.913V52h6z" fill="#F4EDDA"/><path d="M34.612 46v44.447c0 1.41.472 2.553 2.036 2.553h53.048c1.564 0 3.916-1.143 3.916-2.553V46h-59z" fill="#F3C80A"/><path fill="#F4EDDA" d="M34.612 81h59v6h-59zM34.612 51h59v6h-59z"/><path d="M70.405 67.047c0-3.525-2.857-6.382-6.382-6.382s-6.382 2.857-6.382 6.382c0 2.656 1.624 4.59 3.932 5.55L61.045 77H67l-.526-4.402c2.308-.96 3.93-2.895 3.93-5.55z" fill="#5C5D61"/></svg>