<svg xmlns="http://www.w3.org/2000/svg" viewBox="0 0 128 128"><circle cx="64" cy="64" r="64" fill="#FCCC66"/><path fill="#24AD61" d="M42.75 65.5L12.25 96h103.5l-29.5-29.5"/><path d="M40.078 68s12.047 8 12.047 12-17 5-19 6-12 2-11 0 17.953-18 17.953-18zM89.125 69s-26 6-25 12 4 5 12 2 5 1 7 4 8 2 12 2 18 4 18 4l-24-24z" fill="#00C0C2"/><path d="M88.555 38.555C88.555 52.115 64 88 64 88S39.445 52.116 39.445 38.555 50.44 14 64 14s24.555 10.993 24.555 24.555z" fill="#F5795D"/><circle cx="64.336" cy="38.218" r="16.145" fill="#F3F4F8"/><path d="M65.018 48.533c-4.082 0-6.542-2.342-6.81-2.61-.787-.787-.787-2.065 0-2.853.79-.788 2.066-.788 2.855 0 .046.043 1.523 1.427 3.955 1.427 1.76 0 2.69-.698 2.69-2.018 0-1.164-1.04-1.75-3.972-2.823-2.582-.944-6.118-2.237-6.118-5.924 0-3.62 2.703-6.055 6.727-6.055 3.21 0 5.57 1.512 5.83 1.684.927.618 1.177 1.87.56 2.8-.617.923-1.862 1.176-2.79.566-.05-.033-1.614-1.014-3.6-1.014-1.785 0-2.69.68-2.69 2.018 0 .805 1.373 1.367 3.467 2.132 2.795 1.022 6.624 2.42 6.624 6.613 0 3.015-2.08 6.056-6.728 6.056z" fill="#FCCC66"/><path d="M64.346 52.346C63.603 52.346 63 51.743 63 51V25.436c0-.743.602-1.345 1.346-1.345.743 0 1.345.603 1.345 1.346V51c0 .743-.6 1.346-1.344 1.346z" fill="#FCCC66"/></svg>