<svg xmlns="http://www.w3.org/2000/svg" viewBox="0 0 128.5 128.5"><circle cx="64.25" cy="64.25" r="64.25" fill="#B1C95D"/><path d="M63.5 26.375c7.237 0 13.125 5.888 13.125 13.125S70.737 52.625 63.5 52.625 50.375 46.737 50.375 39.5 56.263 26.375 63.5 26.375m0-4.375C53.835 22 46 29.835 46 39.5S53.835 57 63.5 57 81 49.165 81 39.5 73.165 22 63.5 22z" fill="#D88445"/><path fill="#BF713C" d="M23 40h80v56H23z"/><path fill="#CC7A42" d="M47 40H23v28.933h80V40H57"/><path fill="#D88445" d="M45 40H23v29h40V40H50"/><path fill="#B7B7B7" d="M51 69h25v8H51z"/><path fill="#F4F4F4" d="M54 63h19v11H54z"/></svg>