<svg xmlns="http://www.w3.org/2000/svg" viewBox="0 0 128 128"><circle cx="64" cy="64" r="64" fill="#1DBFC1"/><path fill="#4F4955" d="M40.413 24h47.935v31.196H40.413z"/><path d="M96.717 78.097c0 2.06-1.363 3.73-3.044 3.73H34.326c-1.68 0-3.043-1.67-3.043-3.73V52.925c0-2.06 1.363-3.73 3.043-3.73h59.348c1.68 0 3.044 1.67 3.044 3.73v25.172z" fill="#4F4955"/><path d="M84.588 47.058c0 .712-1.262 1.29-2.82 1.29H46.992c-1.557 0-2.82-.578-2.82-1.29V29.855c0-.712 1.262-1.29 2.82-1.29h34.776c1.557 0 2.82.578 2.82 1.29v17.203z" fill="#F0F1F3"/><path d="M31.283 44.543c0-1.68 1.363-3.043 3.043-3.043h59.348c1.68 0 3.044 1.363 3.044 3.043v12.935H31.283V44.543z" fill="#5E5862"/><path fill="#796A6F" d="M31.283 57.196h65.435V61H31.283z"/><circle cx="38.891" cy="49.87" r="2.283" fill="#E6CD11"/><circle cx="44.978" cy="49.87" r="1.522" fill="#FF4D66"/><circle cx="50.304" cy="49.87" r="1.522" fill="#60B272"/><path fill="#3E3145" d="M43.772 68.13h42.74v13.697H43.77z"/><path d="M85.468 92.412c0 .877-1.27 1.588-2.836 1.588h-34.98c-1.568 0-2.837-.71-2.837-1.588V71.24c0-.877 1.27-1.588 2.836-1.588h34.983c1.566 0 2.836.71 2.836 1.588l-.002 21.172z" fill="#F0F1F3"/><path fill="#B9B9BA" d="M49.612 74h29v2h-29zM49.612 79h13v2h-13zM49.612 84h29v2h-29zM49.612 89h13v2h-13z"/></svg>