<svg xmlns="http://www.w3.org/2000/svg" viewBox="0 0 128.5 128.5"><circle cx="64.25" cy="64.25" r="64.25" fill="#EFCB6C"/><path fill="#89CBCE" d="M35 29h57v59H35z"/><path fill="#FFF" d="M42 18h44v70H42z"/><path fill="#97D6DD" d="M24 55h81v44H24z"/><path fill="#74BABA" d="M37 64h53v30H37z"/><path fill="#89CBCE" d="M37 62h53v30H37z"/><path d="M58 25H47c-.552 0-1-.447-1-1s.448-1 1-1h11c.552 0 1 .447 1 1s-.448 1-1 1zM66 25h-4c-.552 0-1-.447-1-1s.448-1 1-1h4c.552 0 1 .447 1 1s-.448 1-1 1zM66 43h-7c-.552 0-1-.447-1-1s.448-1 1-1h7c.552 0 1 .447 1 1s-.448 1-1 1zM66 34H47c-.552 0-1-.447-1-1s.448-1 1-1h19c.552 0 1 .447 1 1s-.448 1-1 1zM81 34H70c-.552 0-1-.447-1-1s.448-1 1-1h11c.552 0 1 .447 1 1s-.448 1-1 1zM81 25H70c-.552 0-1-.447-1-1s.448-1 1-1h11c.552 0 1 .447 1 1s-.448 1-1 1zM81 52H62c-.552 0-1-.447-1-1s.448-1 1-1h19c.552 0 1 .447 1 1s-.448 1-1 1zM58 52H47c-.552 0-1-.447-1-1s.448-1 1-1h11c.552 0 1 .447 1 1s-.448 1-1 1zM56 43h-9c-.552 0-1-.447-1-1s.448-1 1-1h9c.552 0 1 .447 1 1s-.448 1-1 1zM81 43H70c-.552 0-1-.447-1-1s.448-1 1-1h11c.552 0 1 .447 1 1s-.448 1-1 1z" fill="#D8D8D8"/><path fill="#ABE4EE" d="M93 62h9v19h-9z"/><path fill="#B7B7B7" d="M93 84h9v8h-9z"/><path d="M100 88c0 .552-.448 1-1 1h-3c-.552 0-1-.448-1-1s.448-1 1-1h3c.552 0 1 .448 1 1z" fill="#FFF"/></svg>