<svg xmlns="http://www.w3.org/2000/svg" viewBox="0 0 128.5 128.5"><circle cx="64.25" cy="64.25" r="64.25" fill="#EF8D6F"/><circle cx="21.714" cy="80.81" r="4.048" fill="#EDE65D"/><circle cx="36.286" cy="76.762" r="4.048" fill="#EDE65D"/><path d="M24.5 82.5c-.828 0-1.5-.672-1.5-1.5V64.62c0-.612.37-1.162.937-1.392.96-.39 3.99-1.82 6.922-3.204 3.104-1.467 6.037-2.85 7.077-3.272.46-.187.987-.132 1.4.146.415.28.663.746.663 1.245V77c0 .828-.672 1.5-1.5 1.5S37 77.828 37 77V60.456c-1.355.626-3.125 1.462-4.86 2.28-2.425 1.147-4.744 2.242-6.14 2.867V81c0 .828-.672 1.5-1.5 1.5z" fill="#EDE65D"/><circle cx="40.292" cy="47.042" r="3.958" fill="#EDE65D"/><path d="M42.5 48.5c-.828 0-1.5-.672-1.5-1.5V31.208c0-.68.46-1.276 1.117-1.45 2.59-.684 3.6-1.02 5.435-1.637l.807-.268c.784-.263 1.636.163 1.896.948.262.786-.162 1.636-.948 1.897l-.803.268c-1.555.522-2.586.867-4.505 1.393V47c0 .828-.672 1.5-1.5 1.5z" fill="#EDE65D"/><circle cx="87.309" cy="67.103" r="5.785" fill="#DDD354"/><path d="M92.713 67.002h10.425c.586 0 1.113-.358 1.33-.903s.078-1.167-.348-1.57c-1.57-1.482-5.224-5.786-5.224-13.712v-4.306c0-4.752-2.95-8.826-7.112-10.495.704-.902 1.125-2.034 1.125-3.264 0-2.932-2.386-5.317-5.318-5.317-2.93 0-5.316 2.385-5.316 5.317 0 1.23.42 2.363 1.125 3.265-4.162 1.668-7.11 5.742-7.11 10.494v4.306c0 7.924-3.655 12.23-5.226 13.713-.426.403-.563 1.025-.346 1.57.216.544.743.902 1.33.902h10.425" fill="#EDE65D"/><circle cx="87.309" cy="32.394" r="5.785" fill="#DDD354"/><path d="M83 105.452c0 1.96-1.59 3.548-3.548 3.548H49.548c-1.96 0-3.548-1.59-3.548-3.548V43.548C46 41.588 47.588 40 49.548 40h29.904C81.412 40 83 41.59 83 43.548v61.904z" fill="#AFAEAE"/><path d="M80 96.027C80 97.67 78.67 99 77.027 99H51.973C50.33 99 49 97.67 49 96.027V48.973C49 47.33 50.33 46 51.973 46h25.055C78.668 46 80 47.33 80 48.973v47.054z" fill="#CFFDFF"/><path d="M69 44H59c-.553 0-1-.447-1-1s.447-1 1-1h10c.553 0 1 .447 1 1s-.447 1-1 1z" fill="#777"/><ellipse cx="64" cy="104" rx="6" ry="2" fill="#777"/><circle cx="64.5" cy="56.5" r="6.5" fill="#68C1C1"/><path d="M53 75c0-6.075 4.925-11 11-11h1c6.075 0 11 4.925 11 11" fill="#68C1C1"/><path d="M76 81.5c0 1.38-1.12 2.5-2.5 2.5h-18c-1.38 0-2.5-1.12-2.5-2.5s1.12-2.5 2.5-2.5h18c1.38 0 2.5 1.12 2.5 2.5z" fill="#AFAEAE"/><path d="M62 91.5c0 1.933-1.567 3.5-3.5 3.5S55 93.433 55 91.5s1.567-3.5 3.5-3.5 3.5 1.567 3.5 3.5z" fill="#B1C95D"/><path d="M74 91.5c0 1.933-1.567 3.5-3.5 3.5S67 93.433 67 91.5s1.567-3.5 3.5-3.5 3.5 1.567 3.5 3.5z" fill="#EF8D6F"/></svg>