<svg xmlns="http://www.w3.org/2000/svg" viewBox="0 0 128.5 128.5"><circle cx="64.25" cy="64.25" r="64.25" fill="#EF8D6F"/><path fill="#8CCED1" d="M21 92.667v5h4l6-5M108 92.667v5h-4l-6-5"/><path fill="#97D6DD" d="M109 93.667H20v-58h89"/><path fill="#ABE4EE" d="M64 93.667H20v-58h44"/><path fill="#CFFDFF" d="M30 42.667h69v44H30z"/><circle cx="46.7" cy="65.287" r="9.069" fill="#8CCED1"/><path d="M48 77.37c0 .717-.58 1.297-1.296 1.297h-.408c-.716 0-1.296-.58-1.296-1.296V52.964c0-.716.58-1.296 1.296-1.296h.408c.716 0 1.296.58 1.296 1.296V77.37z" fill="#97D6DD"/><path d="M60 65.37c0 .717-.58 1.297-1.296 1.297H34.296c-.716 0-1.296-.58-1.296-1.296v-.407c0-.716.58-1.296 1.296-1.296h24.408c.716 0 1.296.58 1.296 1.296v.408z" fill="#97D6DD"/><circle cx="46.7" cy="65.287" r="5.088" fill="#CFFDFF"/><path d="M93 67.667H73c-1.105 0-2-.896-2-2s.895-2 2-2h20c1.104 0 2 .896 2 2s-.896 2-2 2z" fill="#8CCED1"/><circle cx="71.964" cy="66.287" r="5.05" fill="#8CCED1"/><circle cx="71.965" cy="66.287" r="2.791" fill="#CFFDFF"/></svg>