<svg xmlns="http://www.w3.org/2000/svg" viewBox="0 0 128 128"><circle cx="64" cy="64" r="64" fill="#FCCC66"/><path d="M86.216 97.252c0 2.99-2.424 5.415-5.415 5.415H46.63c-2.99 0-5.414-2.424-5.414-5.415v-63.17c0-2.99 2.424-5.416 5.415-5.416h34.172c2.99 0 5.415 2.424 5.415 5.415v63.172z" fill="#FFFEFF"/><path fill="#486380" d="M82.216 88.667h-36v-50h36"/><path d="M67.216 95.667c0 2.21-1.79 4-4 4s-4-1.79-4-4 1.79-4 4-4 4 1.79 4 4zM73.216 35.313c0 .748-.606 1.354-1.354 1.354H56.57c-.748 0-1.354-.606-1.354-1.354v-.293c0-.748.606-1.354 1.354-1.354h15.293c.748 0 1.354.606 1.354 1.354v.293z" fill="#34495E"/><path fill="#49708B" d="M46.248 88.667h36v-50h-.04L46.25 88.75"/></svg>