<svg xmlns="http://www.w3.org/2000/svg" viewBox="0 0 128 128"><circle cx="64" cy="64" r="64" fill="#FF8E6E"/><path fill="#1D6038" d="M87.696 48.893L40.478 65.49l-7.345-20.898L80.35 27.995z"/><path fill="#24AD61" d="M97.85 50.738L47.344 68.49 40 47.592 90.504 29.84z"/><path d="M29.233 99.936H98.65c1.68 0 2.578-1.307 2.578-2.797V46.613c0-1.49-.9-2.058-2.578-2.058H29.233v55.38z" fill="#F29B1A"/><g fill="#ECF082"><path d="M37.813 98h-3.5c-.828 0-1.5-1.005-1.5-1.833V93h3v2h2v3zM94.195 98h-6.382v-3h6.382c.087 0 .164-.173.23-.188l.65 3.01c-.277.063-.574.178-.88.178zm-13.382 0h-7v-3h7v3zm-15 0h-7v-3h7v3zm-14 0h-7v-3h7v3zm46-8h-3v-7h3v7zm0-14h-3v-7h3v7zm0-14h-3v-8h3v8zm-3.525-12.165l-.093.165h-7.382v-3.333l7.357.085.118 3.083zM79.813 50h-7v-3h7v3zm-14 0h-7v-3h7v3zm-14 0h-7v-3h7v3zM35.813 52h-3v-3.833c0-.828.672-1.167 1.5-1.167h3.5v3h-2v2zM35.813 84h-3v-8h3v8zm0-16h-3v-8h3v8z"/></g><path d="M106.767 70.86c0 3.824-3.1 6.924-6.923 6.924h-21.23c-3.822 0-6.922-3.1-6.922-6.923 0-3.822 3.1-6.922 6.923-6.922h21.23c3.822 0 6.922 3.1 6.922 6.923z" fill="#F0C31D"/><circle cx="79.538" cy="70.861" r="3.231" fill="#F4EDDA"/></svg>