<svg xmlns="http://www.w3.org/2000/svg" viewBox="0 0 78.561 78.561"><circle cx="39.28" cy="57.772" r="3.632"/><path d="M38.792 48.347c1.104 0 2-.896 2-2v-19c0-1.104-.896-2-2-2s-2 .896-2 2v19c0 1.104.896 2 2 2z"/><path d="M46.57 11.542l-.09-.14c-1.853-2.855-3.767-5.807-7.2-5.807-3.578 0-5.45 2.994-7.26 5.89l-.074.12L.278 65.265c-.182.31-.278.47-.278.827 0 3.896 3.135 6.874 6.988 6.874h64.585c3.854 0 6.988-2.98 6.988-6.874 0-.357-.095-.614-.276-.92L46.57 11.54zm25.003 57.424H6.988c-1.46 0-2.717-.95-2.95-2.394l31.374-53.06c1.554-2.488 2.572-3.964 3.868-3.964 1.26 0 2.457 1.87 3.843 4.006l31.4 53.007c-.233 1.443-1.49 2.406-2.95 2.406z"/></svg>